# xmcd CD database file
#
# Track frame offsets:
#	150
#	22131
#	36168
#	49556
#	63958
#	82066
#	96720
#	118329
#	132198
#	144272
#	174237
#	186390
#	196628
#	207069
#	219795
#	231598
#	240605
#	257254
#	269415
#	282619
#	296959
#	310800
#
# Disc length: 4341 seconds
#
# Revision: 4
# Processed by: cddbd v1.5.1PL0 Copyright (c) Steve Scherf et al.
# Submitted via: CDex 1.51
#
DISCID=5110f316
DTITLE=22 Great Harmonica Performances - Inspiration
DYEAR=2002
DGENRE=Blues
TTITLE0=Toots Thielemans - Gymnopedie n°1
TTITLE1=Sonny Terry - Lost John
TTITLE2=Mark Graham - Tour de Taille
TTITLE3=Eivets RedNow - Alfie
TTITLE4=Big Walter Horton - Christine
TTITLE5=Hugo Diaz - La compañera
TTITLE6=Michel Herblin - Voice
TTITLE7=Jimmie Riddle - Freight Train Blues
TTITLE8=Sonny Boy Williamson - Trust My Baby
TTITLE9=Olivier Ker Ourio - Sous le ciel de Paris
TTITLE10=Magic Dick - Whammer Jammer
TTITLE11=Phil, John and Pip Murphy - The Ballygow Reel and The Trip to Cullenstown
TTITLE12=Greg Szalpczynski - Moody
TTITLE13=James Cotton - You Don't Have To Go
TTITLE14=Borrah Minevitch - On The Loose
TTITLE15=Thierry Crommen - Mellow Man
TTITLE16=Charlie McCoy - Orange Blossom Special
TTITLE17=Eric Chafer - Intro
TTITLE18=Robert Lee McCoy - My Drivin' Wheel
TTITLE19=Little Walter - That's it
TTITLE20=Larry Adler - Body and Soul
TTITLE21=Deford Bailey - Ice Water Blues
EXTD=YEAR: 2002
EXTT0=
EXTT1=
EXTT2=
EXTT3=
EXTT4=
EXTT5=
EXTT6=
EXTT7=
EXTT8=
EXTT9=
EXTT10=
EXTT11=
EXTT12=
EXTT13=
EXTT14=
EXTT15=
EXTT16=
EXTT17=
EXTT18=
EXTT19=
EXTT20=
EXTT21=
PLAYORDER=
